<svg xmlns="http://www.w3.org/2000/svg" version="1.1" viewBox="-5 -10 110 110">
 <path d="m46.262 18.199c0.15625-0.55078 0.73047-0.88672 1.2812-0.73047 0.61328 0.16797 1.2188 0.33203 1.8242 0.48828 0.55078 0.14453 0.89453 0.70703 0.75 1.2695-0.125 0.46875-0.54297 0.78125-1.0117 0.78125-0.082031 0-0.17578-0.011718-0.26172-0.03125-0.60547-0.15625-1.2305-0.32422-1.8438-0.48828-0.55078-0.15625-0.88672-0.71875-0.73047-1.2812zm47.363 34.188c-0.84375 10.012-6.9062 18.781-16.074 23.074-2.0117 0.94922-4.3008 1.6445-7 2.1367l-1.25 0.21875c-2.625 0.46875-7.0195 1.2383-12.125 2.3633-17.938 3.9258-30.27 8.875-35.668 14.301-0.20703 0.20703-0.46875 0.30078-0.73828 0.30078s-0.53125-0.10547-0.73828-0.30078c-0.40625-0.40625-0.40625-1.0625 0-1.4688 2.4258-2.4375 6.0312-4.7305 10.762-6.875 1.543-3.9375 3.668-10.281 5.1133-18.332-6.7812 1.2305-11.75 2.5625-14.688 3.9688-0.14453 0.074218-0.30078 0.10547-0.44922 0.10547-0.38672 0-0.76172-0.21875-0.9375-0.59375-0.25-0.51953-0.03125-1.1445 0.48828-1.3867 3.2305-1.5508 8.582-2.9805 15.949-4.2695 0.69922-4.4375 1.1758-9.3242 1.2305-14.574h-16.73c-0.57422 0-1.043-0.46875-1.043-1.043s0.46875-1.043 1.043-1.043h16.719c-0.050781-5.25-0.51953-10.137-1.2188-14.574-7.3633-1.3008-12.719-2.7305-15.949-4.2812-0.51953-0.25-0.73828-0.875-0.48828-1.3867 0.25-0.51953 0.875-0.73828 1.3867-0.48828 2.9258 1.4062 7.9062 2.7383 14.676 3.9688-1.4375-8.0117-3.5508-14.344-5.1133-18.332-4.7383-2.1562-8.3438-4.4492-10.75-6.875-0.40625-0.40625-0.40625-1.0625 0-1.4688s1.0625-0.40625 1.4688 0c3.9805 3.9883 11.531 7.6758 22.449 10.938 0.55078 0.16797 0.86328 0.73828 0.69922 1.293-0.13672 0.44922-0.55078 0.73828-1 0.73828-0.09375 0-0.19922-0.011719-0.30078-0.042969-3.6758-1.0938-6.9805-2.25-9.918-3.4492 1.543 4.2188 3.375 10.23 4.6445 17.574 4.5312 0.76172 9.7812 1.4805 15.688 2.1367 1.375-1.5312 2.9492-2.875 4.6875-3.9883-0.625-3.0508-1.4062-6.0742-2.3125-9.0117-1.1875-0.26172-2.3867-0.53125-3.625-0.83203-0.5625-0.13672-0.90625-0.69922-0.76953-1.2617 0.13672-0.5625 0.69922-0.90625 1.2617-0.76953 1.4258 0.34375 2.8242 0.66797 4.1875 0.94922 5.1133 1.125 9.5 1.8945 12.125 2.3633l1.2383 0.21875c2.6992 0.48047 4.9883 1.1758 7 2.1367 9.1758 4.3125 15.238 13.094 16.062 23.082 0.082031 0.78125 0.125 1.5742 0.125 2.375s-0.042969 1.6055-0.125 2.3867zm-30.082 17.102-2.125-6.543h-6.875c2.332 2.9258 5.4375 5.1992 9 6.543zm-13.461-17.852c0.26172 3.3633 1.332 6.5117 3.0117 9.2383h8.5508l3.1133-4.2812-2.707-8.3438-5.0312-1.6367-6.9375 5.0195zm5.5234-6.5859-2.125-6.5625c-2.0312 3.0625-3.2617 6.6875-3.4375 10.594zm35.977 6.5742-6.9258-5.0195-5.0312 1.6367-2.707 8.3438 3.1133 4.2812h8.5508c1.6758-2.7305 2.7383-5.875 3-9.2383zm0.042969-2.543c-0.16797-3.9062-1.4062-7.5312-3.4375-10.594l-2.125 6.5508 5.5625 4.0312zm-12.793-18.32-6.957 5.043v5.3008l7.0938 5.1562 5.043-1.6367 2.6445-8.1562c-2.1133-2.4688-4.7812-4.4375-7.8242-5.707zm-2.4258-0.8125c-1.7812-0.5-3.6445-0.78125-5.5742-0.78125-1.9258 0-3.793 0.28125-5.5742 0.78125l5.5742 4.043zm-12.301 17.863 2.5742 7.918h8.3242l2.5742-7.918-6.7305-4.8867-6.7305 4.8867zm6.7266 23.02c1.6758 0 3.293-0.21875 4.8555-0.59375l2.6367-8.1445-3.1133-4.2812h-8.7695l-3.1133 4.2812 2.6367 8.1445c1.5625 0.375 3.1875 0.59375 4.8555 0.59375zm7.293-1.3438c3.5625-1.332 6.668-3.6133 8.9883-6.543h-6.875l-2.125 6.543zm-17.77-39.852c3.1445-1.625 6.707-2.5508 10.48-2.5508 4.4375 0 8.5742 1.2695 12.082 3.457-1.8438-1.6367-3.9375-3.0312-6.25-4.125-1.8555-0.875-3.9688-1.5195-6.4805-1.9688l-1.2383-0.21875c-2.3438-0.41797-6.082-1.082-10.48-2.0117 0.71875 2.4258 1.3438 4.9062 1.875 7.4062zm-5.3359 6.8438 2.6367 8.1445 5.043 1.6367 7.0938-5.1562v-5.3008l-6.9492-5.0312c-3.043 1.2695-5.707 3.2383-7.8242 5.707zm-15.445 12.477h8.375c0.20703-4.582 1.7695-8.8242 4.293-12.324-5.1445-0.59375-9.75-1.2188-13.801-1.8867 0.65625 4.3555 1.082 9.1133 1.1367 14.207zm0.007812 2.0938c-0.050781 5.0938-0.5 9.8555-1.1445 14.199 4.0508-0.66797 8.6562-1.293 13.801-1.8867-2.5195-3.5-4.082-7.7383-4.293-12.324h-8.3633v0.011719zm-6.1328 33.938c6.0195-2.4492 13.594-4.6875 22.688-6.6992 0.92578-3.0117 1.707-6.043 2.3125-9.0195-1.7305-1.1133-3.3008-2.457-4.6758-3.9805-5.9062 0.65625-11.168 1.375-15.699 2.1445-1.2695 7.3633-3.1055 13.387-4.625 17.562zm49.488-15.539c-3.5117 2.1992-7.668 3.4688-12.105 3.4688-3.7812 0-7.3438-0.92578-10.488-2.5508-0.51953 2.457-1.1562 4.9375-1.8867 7.418 4.4062-0.92578 8.1445-1.5938 10.48-2.0117l1.2383-0.21875c2.5117-0.44922 4.6367-1.0938 6.4805-1.9688 2.3242-1.082 4.418-2.4883 6.2695-4.1367z"/></svg>
